<?xml version="1.0" standalone="no"?>
<!DOCTYPE svg PUBLIC "-//W3C//DTD SVG 20010904//EN"
 "http://www.w3.org/TR/2001/REC-SVG-20010904/DTD/svg10.dtd">
<svg version="1.0" xmlns="http://www.w3.org/2000/svg"
 width="753.000000pt" height="753.000000pt" viewBox="0 0 753.000000 753.000000"
 preserveAspectRatio="xMidYMid meet">
<metadata>
Created by potrace 1.14, written by Peter Selinger 2001-2017
</metadata>
<g transform="translate(0.000000,753.000000) scale(0.100000,-0.100000)"
fill="#000000" stroke="none">
<path d="M3750 7493 c-52 -18 -109 -33 -127 -33 -18 0 -66 -18 -110 -42 -126
-67 -204 -104 -270 -128 -37 -13 -83 -41 -115 -69 -29 -25 -71 -56 -94 -68
-35 -19 -45 -21 -71 -11 -25 9 -43 7 -114 -16 -46 -15 -91 -30 -99 -33 -8 -3
-20 -5 -27 -4 -23 3 -110 -48 -159 -94 -27 -26 -69 -61 -92 -78 -32 -23 -52
-49 -72 -94 -16 -34 -42 -82 -59 -106 -29 -42 -30 -50 -35 -173 -3 -71 -8
-140 -11 -154 -2 -14 -11 -69 -19 -124 -13 -83 -21 -107 -51 -152 -19 -30 -40
-78 -46 -107 -6 -28 -37 -106 -69 -172 -32 -66 -72 -169 -89 -228 -37 -128
-98 -255 -153 -317 -45 -51 -92 -138 -102 -190 -21 -104 -62 -220 -96 -270
-26 -38 -40 -72 -45 -108 -4 -29 -20 -79 -35 -110 -23 -45 -28 -64 -23 -96 11
-70 5 -195 -12 -286 -2 -8 -6 -42 -9 -75 -4 -33 -8 -69 -10 -80 -2 -11 3 -40
11 -65 7 -25 20 -82 29 -127 13 -73 13 -89 0 -140 -13 -50 -13 -66 -2 -118 16
-68 29 -186 28 -260 0 -27 9 -72 20 -100 26 -65 36 -99 44 -149 3 -22 7 -43 9
-46 2 -3 6 -24 9 -46 10 -65 13 -77 34 -126 12 -26 28 -75 37 -110 16 -65 19
-79 35 -161 18 -89 40 -154 66 -188 14 -19 45 -73 70 -121 24 -47 48 -89 54
-93 15 -9 183 -233 202 -270 9 -16 23 -49 32 -71 22 -61 139 -212 202 -262 30
-24 68 -65 85 -91 16 -27 55 -73 87 -102 32 -30 88 -92 126 -139 85 -105 129
-147 228 -217 74 -52 157 -128 225 -205 69 -78 179 -137 439 -237 197 -75 259
-95 373 -116 55 -10 87 -23 130 -53 32 -22 84 -46 121 -56 89 -24 191 -87 240
-149 25 -31 58 -58 88 -72 26 -12 90 -56 142 -98 82 -66 111 -82 141 -79 4 1
42 4 85 7 93 6 154 23 161 44 3 9 19 51 36 93 29 74 30 79 17 131 -16 69 -8
143 30 276 17 57 30 110 30 117 0 8 5 14 10 14 6 0 10 8 10 18 0 9 7 26 15 36
8 11 15 27 15 35 0 8 20 33 44 56 46 42 54 61 97 224 19 72 69 175 128 263 16
24 32 61 36 83 4 22 9 49 11 60 4 21 44 123 74 190 10 22 35 105 55 184 20 79
52 183 71 230 56 136 62 153 69 211 3 30 13 78 21 105 17 57 22 87 28 165 2
30 9 84 15 120 5 36 13 85 16 109 4 25 17 74 31 109 15 40 22 73 17 86 -3 12
-8 28 -9 36 -2 8 -6 28 -10 43 -4 18 1 53 15 96 18 58 21 91 21 227 -1 87 -1
204 0 259 1 101 -9 154 -49 267 -11 32 -18 66 -17 75 18 93 17 104 -5 170 -13
38 -24 70 -24 73 -1 3 -5 25 -9 50 -5 25 -41 129 -81 231 -40 103 -75 211 -79
242 -5 33 -17 71 -32 92 -13 20 -24 38 -24 41 0 3 -13 24 -29 47 -47 69 -67
109 -81 164 -8 29 -23 62 -35 75 -36 40 -71 91 -105 153 -68 125 -83 145 -131
181 -31 23 -75 73 -123 142 -44 64 -91 120 -117 139 -24 17 -91 77 -149 133
-58 56 -116 109 -130 118 -14 9 -52 37 -85 63 -33 25 -91 63 -130 84 -38 21
-87 58 -108 81 -28 32 -52 48 -90 59 -59 18 -133 64 -224 141 -35 30 -70 54
-78 54 -17 0 -29 16 -12 17 144 6 421 65 587 125 47 17 118 41 157 54 160 52
395 187 487 279 42 41 41 36 21 102 -35 119 -146 185 -407 243 -97 22 -171 47
-273 95 -61 28 -115 45 -190 59 -11 3 -56 12 -100 22 -59 13 -130 18 -275 19
l-195 1 -95 -33z"/>
</g>
</svg>
